# 3ds Max Wavefront OBJ Exporter v0.97b - (c)2007 guruware
# File Created: 31.05.2015 14:01:29

#
# object LP_StromKasten001
#

v  -18.7741 12.0000 -28.0131
v  -18.7487 12.0000 -20.7131
v  -11.7487 12.0000 -28.0131
v  -18.4487 17.0000 -20.7131
v  -11.4487 17.0000 -27.7131
v  -20.0000 0.0000 -30.0131
v  -20.0000 12.0000 -30.0131
v  -11.7120 12.0000 -30.0131
v  -11.7120 0.0000 -30.0131
v  11.7487 12.0000 -28.0131
v  11.7120 12.0000 -30.0131
v  -20.0000 0.0000 -20.7131
v  -20.0000 12.0000 -20.7131
v  -18.7568 0.0000 -28.0136
v  -18.7568 0.0000 -20.7131
v  11.7120 0.0000 -30.0131
v  -11.7120 0.0000 -28.0136
v  -11.7120 0.0000 -20.7131
v  18.7741 12.0000 -28.0131
v  18.7487 12.0000 -20.7131
v  11.4487 17.0000 -27.7131
v  18.4487 17.0000 -20.7131
v  20.0000 0.0000 -30.0131
v  20.0000 12.0000 -30.0131
v  11.7120 0.0000 -28.0136
v  11.7120 0.0000 -20.7131
v  20.0000 12.0000 -20.7131
v  20.0000 0.0000 -20.7131
v  18.7568 0.0000 -20.7131
v  18.7568 0.0000 -28.0136
v  -20.0000 12.0000 20.7131
v  -20.0000 0.0000 20.7131
v  -18.7487 12.0000 20.7131
v  -18.4487 17.0000 20.7131
v  -18.7741 12.0000 28.0131
v  -11.7487 12.0000 28.0131
v  -11.4487 17.0000 27.7131
v  -20.0000 0.0000 30.0131
v  -11.7120 0.0000 30.0131
v  -11.7120 12.0000 30.0131
v  -20.0000 12.0000 30.0131
v  11.7120 12.0000 30.0131
v  11.7487 12.0000 28.0131
v  -18.7568 0.0000 20.7131
v  -18.7568 0.0000 28.0136
v  11.7120 0.0000 30.0131
v  -11.7120 0.0000 28.0136
v  -11.7120 0.0000 20.7131
v  20.0000 12.0000 20.7131
v  20.0000 0.0000 20.7131
v  18.7487 12.0000 20.7131
v  18.4487 17.0000 20.7131
v  18.7741 12.0000 28.0131
v  11.4487 17.0000 27.7131
v  20.0000 0.0000 30.0131
v  20.0000 12.0000 30.0131
v  11.7120 0.0000 28.0136
v  11.7120 0.0000 20.7131
v  18.7568 0.0000 28.0136
v  18.7568 0.0000 20.7131
# 60 vertices

vn 0.0000 1.0000 -0.0000
vn -0.9253 0.0622 -0.3740
vn -0.9203 0.0552 -0.3873
vn -0.7156 0.0722 -0.6947
vn -0.7192 0.0845 -0.6896
vn 0.0000 0.0000 -1.0000
vn -1.0000 0.0000 -0.0000
vn 0.0000 -1.0000 -0.0000
vn 0.9253 0.0622 -0.3740
vn 0.7192 0.0845 -0.6896
vn 0.7156 0.0722 -0.6947
vn 0.9203 0.0552 -0.3873
vn 1.0000 0.0000 -0.0000
vn 0.0000 0.0599 -0.9982
vn -0.9253 0.0622 0.3740
vn -0.9203 0.0552 0.3873
vn -0.7192 0.0845 0.6896
vn -0.7156 0.0722 0.6947
vn 0.0000 0.0000 1.0000
vn 0.9253 0.0622 0.3740
vn 0.9203 0.0552 0.3873
vn 0.7156 0.0722 0.6947
vn 0.7192 0.0845 0.6896
vn 0.0000 0.0599 0.9982
# 24 vertex normals

vt 0.5004 0.3351 0.0000
vt 0.4377 0.3349 0.0000
vt 0.5004 0.2747 0.0000
vt 0.9040 0.9473 0.0000
vt 0.9040 0.9043 0.0000
vt 0.9641 0.9043 0.0000
vt 0.9667 0.9473 0.0000
vt 0.5196 0.4509 0.0000
vt 0.5196 0.3479 0.0000
vt 0.5908 0.3479 0.0000
vt 0.5908 0.4509 0.0000
vt 0.5004 0.0729 0.0000
vt 0.5176 0.0732 0.0000
vt 0.5176 0.2744 0.0000
vt 0.5176 0.6936 0.0000
vt 0.5176 0.7967 0.0000
vt 0.4377 0.7967 0.0000
vt 0.4377 0.6936 0.0000
vt 0.0819 0.6913 0.0000
vt 0.0020 0.6913 0.0000
vt 0.0192 0.6806 0.0000
vt 0.0819 0.6806 0.0000
vt 0.5176 0.3456 0.0000
vt 0.4377 0.3456 0.0000
vt 0.7920 0.3479 0.0000
vt 0.7920 0.4509 0.0000
vt 0.0020 0.6201 0.0000
vt 0.0192 0.6201 0.0000
vt 0.0819 0.6201 0.0000
vt 0.5004 0.0126 0.0000
vt 0.4377 0.0128 0.0000
vt 0.0648 0.9473 0.0000
vt 0.0021 0.9473 0.0000
vt 0.0046 0.9043 0.0000
vt 0.0648 0.9043 0.0000
vt 0.8632 0.4509 0.0000
vt 0.8632 0.3479 0.0000
vt 0.0192 0.4189 0.0000
vt 0.0819 0.4189 0.0000
vt 0.0020 0.7991 0.0000
vt 0.0819 0.7991 0.0000
vt 0.0819 0.9021 0.0000
vt 0.0020 0.9021 0.0000
vt 0.0819 0.3477 0.0000
vt 0.0819 0.3584 0.0000
vt 0.0192 0.3584 0.0000
vt 0.0020 0.3477 0.0000
vt 0.4377 0.0020 0.0000
vt 0.5176 0.0020 0.0000
vt 0.7189 0.6016 0.0000
vt 0.5223 0.6016 0.0000
vt 0.5197 0.5586 0.0000
vt 0.7215 0.5586 0.0000
vt 0.0020 0.4189 0.0000
vt 0.0819 0.6936 0.0000
vt 0.0819 0.7967 0.0000
vt 0.5482 0.9473 0.0000
vt 0.5482 0.9043 0.0000
vt 0.0192 0.3351 0.0000
vt 0.0192 0.2747 0.0000
vt 0.0819 0.3349 0.0000
vt 0.4855 0.9473 0.0000
vt 0.4880 0.9043 0.0000
vt 0.9958 0.2590 0.0000
vt 0.9357 0.3191 0.0000
vt 0.5799 0.3191 0.0000
vt 0.5198 0.2590 0.0000
vt 0.8632 0.5564 0.0000
vt 0.7920 0.5564 0.0000
vt 0.7920 0.4533 0.0000
vt 0.8632 0.4533 0.0000
vt 0.0020 0.2744 0.0000
vt 0.0020 0.0732 0.0000
vt 0.0192 0.0729 0.0000
vt 0.0020 0.6936 0.0000
vt 0.0020 0.7967 0.0000
vt 0.4377 0.6913 0.0000
vt 0.4377 0.6806 0.0000
vt 0.5004 0.6806 0.0000
vt 0.5176 0.6913 0.0000
vt 0.0819 0.3456 0.0000
vt 0.0020 0.3456 0.0000
vt 0.5908 0.4533 0.0000
vt 0.5908 0.5564 0.0000
vt 0.5004 0.6201 0.0000
vt 0.5176 0.6201 0.0000
vt 0.4377 0.6201 0.0000
vt 0.4377 0.7991 0.0000
vt 0.4377 0.9021 0.0000
vt 0.4206 0.9473 0.0000
vt 0.4206 0.9043 0.0000
vt 0.0192 0.0126 0.0000
vt 0.0819 0.0128 0.0000
vt 0.4807 0.9043 0.0000
vt 0.4833 0.9473 0.0000
vt 0.5799 0.0022 0.0000
vt 0.9357 0.0022 0.0000
vt 0.9958 0.0623 0.0000
vt 0.5198 0.0623 0.0000
vt 0.5196 0.5564 0.0000
vt 0.5196 0.4533 0.0000
vt 0.5004 0.4189 0.0000
vt 0.4377 0.4189 0.0000
vt 0.5176 0.7991 0.0000
vt 0.5176 0.9021 0.0000
vt 0.4377 0.3477 0.0000
vt 0.5176 0.3477 0.0000
vt 0.5004 0.3584 0.0000
vt 0.4377 0.3584 0.0000
vt 0.0020 0.0020 0.0000
vt 0.0819 0.0020 0.0000
vt 0.9256 0.5586 0.0000
vt 0.9230 0.6016 0.0000
vt 0.7264 0.6016 0.0000
vt 0.7238 0.5586 0.0000
vt 0.5176 0.4189 0.0000
# 116 texture coords

g LP_StromKasten001
s 1
f 1/1/1 2/2/1 3/3/1 
s 2
f 2/4/2 4/5/3 5/6/4 3/7/5 
f 6/8/6 7/9/6 8/10/6 9/11/6 
s 1
f 3/3/1 10/12/1 11/13/1 8/14/1 
s 4
f 7/15/7 6/16/7 12/17/7 13/18/7 
s 1
f 12/19/8 6/20/8 14/21/8 15/22/8 
f 2/2/1 1/1/1 7/23/1 13/24/1 
s 2
f 9/11/6 8/10/6 11/25/6 16/26/6 
s 1
f 6/20/8 9/27/8 17/28/8 14/21/8 
f 18/29/8 15/22/8 14/21/8 17/28/8 
f 1/1/1 3/3/1 8/14/1 7/23/1 
f 19/30/1 10/12/1 20/31/1 
s 2
f 20/32/9 10/33/10 21/34/11 22/35/12 
f 23/36/6 16/26/6 11/25/6 24/37/6 
s 1
f 18/29/8 17/28/8 25/38/8 26/39/8 
s 4
f 24/40/13 27/41/13 28/42/13 23/43/13 
s 1
f 28/44/8 29/45/8 30/46/8 23/47/8 
f 20/31/1 27/48/1 24/49/1 19/30/1 
s 4
f 5/50/14 21/51/14 10/52/14 3/53/14 
s 1
f 23/47/8 30/46/8 25/38/8 16/54/8 
f 26/39/8 25/38/8 30/46/8 29/45/8 
f 19/30/1 24/49/1 11/13/1 10/12/1 
f 25/38/8 17/28/8 9/27/8 16/54/8 
s 4
f 31/55/7 13/18/7 12/17/7 32/56/7 
s 2
f 33/57/15 34/58/16 4/5/3 2/4/2 
s 1
f 35/59/1 36/60/1 33/61/1 
s 2
f 33/57/15 36/62/17 37/63/18 34/58/16 
s 1
f 5/64/1 4/65/1 34/66/1 37/67/1 
s 2
f 38/68/19 39/69/19 40/70/19 41/71/19 
s 1
f 36/60/1 40/72/1 42/73/1 43/74/1 
s 4
f 41/75/7 31/55/7 32/56/7 38/76/7 
s 1
f 32/77/8 44/78/8 45/79/8 38/80/8 
f 33/61/1 31/81/1 41/82/1 35/59/1 
s 2
f 42/83/19 40/70/19 39/69/19 46/84/19 
s 1
f 12/19/8 15/22/8 44/78/8 32/77/8 
f 2/2/1 13/24/1 31/81/1 33/61/1 
f 38/80/8 45/79/8 47/85/8 39/86/8 
f 44/78/8 15/22/8 18/29/8 48/87/8 
f 48/87/8 47/85/8 45/79/8 44/78/8 
f 35/59/1 41/82/1 40/72/1 36/60/1 
s 4
f 28/42/13 27/41/13 49/88/13 50/89/13 
s 2
f 51/90/20 20/32/9 22/35/12 52/91/21 
s 1
f 53/92/1 51/93/1 43/74/1 
s 2
f 51/90/20 52/91/21 54/94/22 43/95/23 
s 1
f 52/96/1 22/97/1 21/98/1 54/99/1 
s 2
f 55/100/19 56/101/19 42/83/19 46/84/19 
s 1
f 57/102/8 47/85/8 48/87/8 58/103/8 
s 4
f 56/104/13 55/105/13 50/89/13 49/88/13 
s 1
f 50/106/8 55/107/8 59/108/8 60/109/8 
f 51/93/1 53/92/1 56/110/1 49/111/1 
s 4
f 43/112/24 54/113/24 37/114/24 36/115/24 
s 1
f 54/99/1 21/98/1 5/64/1 37/67/1 
f 48/87/8 18/29/8 26/39/8 58/103/8 
f 60/109/8 29/45/8 28/44/8 50/106/8 
f 49/111/1 27/48/1 20/31/1 51/93/1 
f 55/107/8 46/116/8 57/102/8 59/108/8 
f 60/109/8 58/103/8 26/39/8 29/45/8 
f 58/103/8 60/109/8 59/108/8 57/102/8 
f 53/92/1 43/74/1 42/73/1 56/110/1 
f 39/86/8 47/85/8 57/102/8 46/116/8 
# 56 polygons - 4 triangles

