# 3ds Max Wavefront OBJ Exporter v0.97b - (c)2007 guruware
# File Created: 31.05.2015 18:04:28

#
# object LP_TubeAttacher
#

v  10.3102 9.2494 65.7592
v  10.3102 9.2494 59.7592
v  10.0234 9.5293 59.7592
v  10.0234 9.5293 65.7592
v  20.1712 3.3918 65.7592
v  20.1712 3.3918 59.7592
v  12.1282 3.3918 59.7592
v  12.1282 3.3918 65.7592
v  9.5793 9.7472 65.7592
v  9.5793 9.7472 59.7592
v  9.0642 9.8247 59.7592
v  9.0642 9.8247 65.7592
v  11.2498 4.1416 65.7592
v  11.2498 4.1416 59.7592
v  10.4944 8.8938 59.7592
v  10.4944 8.8938 65.7592
v  11.3229 3.8248 65.7592
v  11.3229 3.8248 59.7592
v  11.7645 3.4244 65.7592
v  11.7645 3.4244 59.7592
v  11.4758 3.5669 59.7592
v  11.4758 3.5669 65.7592
v  -8.2846 9.8247 59.7592
v  -8.2846 9.8247 65.7592
v  -9.5306 9.2494 65.7592
v  -9.2438 9.5293 65.7592
v  -9.2438 9.5293 59.7592
v  -9.5306 9.2494 59.7592
v  -19.3916 3.3918 65.7592
v  -11.3486 3.3918 65.7592
v  -11.3486 3.3918 59.7592
v  -19.3916 3.3918 59.7592
v  -8.7997 9.7472 65.7592
v  -8.7997 9.7472 59.7592
v  -10.4703 4.1416 65.7592
v  -9.7148 8.8938 65.7592
v  -9.7148 8.8938 59.7592
v  -10.4703 4.1416 59.7592
v  -10.5433 3.8248 65.7592
v  -10.5433 3.8248 59.7592
v  -10.9849 3.4244 65.7592
v  -10.6962 3.5669 65.7592
v  -10.6962 3.5669 59.7592
v  -10.9849 3.4244 59.7592
# 44 vertices

vn 0.8034 0.5954 -0.0000
vn 0.5767 0.8169 -0.0000
vn 0.5767 0.8169 0.0000
vn 0.0000 1.0000 -0.0000
vn 0.0446 0.9990 -0.0000
vn 0.2981 0.9545 0.0000
vn 0.0745 0.9972 0.0000
vn 0.0745 0.9972 -0.0000
vn 0.9816 0.1909 -0.0000
vn 0.9816 0.1909 0.0000
vn 0.9499 0.3125 -0.0000
vn 0.9283 0.3718 0.0000
vn 0.2705 0.9627 0.0000
vn 0.2705 0.9627 -0.0000
vn 0.6795 0.7337 0.0000
vn -0.0745 0.9972 0.0000
vn -0.0745 0.9972 -0.0000
vn -0.8034 0.5954 -0.0000
vn -0.5767 0.8169 0.0000
vn -0.5767 0.8169 -0.0000
vn -0.0446 0.9990 -0.0000
vn -0.2981 0.9545 0.0000
vn -0.9816 0.1909 -0.0000
vn -0.9499 0.3125 -0.0000
vn -0.9816 0.1909 0.0000
vn -0.9283 0.3718 0.0000
vn -0.2705 0.9627 0.0000
vn -0.6795 0.7337 0.0000
vn -0.2705 0.9627 -0.0000
# 29 vertex normals

vt 0.7865 0.6960 0.0000
vt 0.4801 0.6960 0.0000
vt 0.4801 0.6817 0.0000
vt 0.7865 0.6817 0.0000
vt 0.0100 0.9900 0.0000
vt 0.0100 0.6836 0.0000
vt 0.4207 0.6836 0.0000
vt 0.4207 0.9900 0.0000
vt 0.0341 0.3164 0.0000
vt 0.0341 0.0100 0.0000
vt 0.0607 0.0100 0.0000
vt 0.0607 0.3164 0.0000
vt 0.7865 0.9568 0.0000
vt 0.4801 0.9568 0.0000
vt 0.4801 0.7142 0.0000
vt 0.7865 0.7142 0.0000
vt 0.0100 0.3164 0.0000
vt 0.0100 0.0100 0.0000
vt 0.7865 0.9730 0.0000
vt 0.4801 0.9730 0.0000
vt 0.4393 0.9900 0.0000
vt 0.4393 0.6836 0.0000
vt 0.4540 0.6836 0.0000
vt 0.4540 0.9900 0.0000
vt 0.7865 0.9862 0.0000
vt 0.4801 0.9862 0.0000
vt 0.9367 0.0100 0.0000
vt 0.9367 0.3164 0.0000
vt 0.4801 0.3655 0.0000
vt 0.4801 0.3512 0.0000
vt 0.7865 0.3512 0.0000
vt 0.7865 0.3655 0.0000
vt 0.4540 0.6575 0.0000
vt 0.0433 0.6575 0.0000
vt 0.0433 0.3512 0.0000
vt 0.4540 0.3512 0.0000
vt 0.9621 0.3164 0.0000
vt 0.9621 0.0100 0.0000
vt 0.4801 0.6263 0.0000
vt 0.4801 0.3836 0.0000
vt 0.7865 0.3836 0.0000
vt 0.7865 0.6263 0.0000
vt 0.9829 0.3164 0.0000
vt 0.9829 0.0100 0.0000
vt 0.4801 0.6424 0.0000
vt 0.7865 0.6424 0.0000
vt 0.0247 0.6575 0.0000
vt 0.0100 0.6575 0.0000
vt 0.0100 0.3512 0.0000
vt 0.0247 0.3512 0.0000
vt 0.4801 0.6556 0.0000
vt 0.7865 0.6556 0.0000
# 52 texture coords

g LP_TubeAttacher
s 1
f 1/1/1 2/2/1 3/3/2 4/4/3 
f 5/5/4 6/6/4 7/7/5 8/8/5 
f 9/9/6 10/10/6 11/11/7 12/12/8 
f 13/13/9 14/14/10 15/15/11 16/16/11 
f 4/17/3 3/18/2 10/10/6 9/9/6 
f 16/16/11 15/15/11 2/2/1 1/1/1 
f 17/19/12 18/20/12 14/14/10 13/13/9 
f 19/21/13 20/22/14 21/23/15 22/24/15 
f 8/8/5 7/7/5 20/22/14 19/21/13 
f 22/25/15 21/26/15 18/20/12 17/19/12 
f 12/12/8 11/11/7 23/27/16 24/28/17 
f 25/29/18 26/30/19 27/31/20 28/32/18 
f 29/33/4 30/34/21 31/35/21 32/36/4 
f 33/37/22 24/28/17 23/27/16 34/38/22 
f 35/39/23 36/40/24 37/41/24 38/42/25 
f 26/43/19 33/37/22 34/38/22 27/44/20 
f 36/40/24 25/29/18 28/32/18 37/41/24 
f 39/45/26 35/39/23 38/42/25 40/46/26 
f 41/47/27 42/48/28 43/49/28 44/50/29 
f 30/34/21 41/47/27 44/50/29 31/35/21 
f 42/51/28 39/45/26 40/46/26 43/52/28 
# 21 polygons

